<?xml version="1.0" standalone="no"?><!DOCTYPE svg PUBLIC "-//W3C//DTD SVG 1.1//EN" "http://www.w3.org/Graphics/SVG/1.1/DTD/svg11.dtd"><svg t="1579226278309" class="icon" viewBox="0 0 1024 1024" version="1.1" xmlns="http://www.w3.org/2000/svg" p-id="4521" xmlns:xlink="http://www.w3.org/1999/xlink" width="200" height="200"><defs><style type="text/css"></style></defs><path d="M857.93792 516.827136 453.464064 110.406656l-389.41696 1.486848 0.587776 360.107008 418.9696 420.953088c26.268672 26.421248 68.5312 26.765312 94.364672 0.799744l280.76032-282.098688C884.580352 585.6768 884.227072 543.22688 857.93792 516.827136L857.93792 516.827136zM232.188928 344.23808c-36.553728 0-66.177024-29.766656-66.177024-66.494464 0-36.721664 29.623296-66.492416 66.177024-66.492416 36.542464 0 66.16576 29.766656 66.16576 66.492416C298.354688 314.466304 268.727296 344.23808 232.188928 344.23808L232.188928 344.23808zM232.188928 344.23808M605.950976 919.3984c-8.82688 0-17.748992-1.608704-26.331136-4.93056l4.12672-10.671104c22.515712 8.695808 47.852544 3.4816 64.54272-13.2864l280.748032-282.098688c23.596032-23.699456 23.231488-62.613504-0.78848-86.751232L525.448192 116.934656l-46.276608 0.176128-0.049152-11.447296L530.194432 105.472l1.687552 1.690624 404.476928 406.424576c28.45696 28.588032 28.802048 74.754048 0.796672 102.894592L656.403456 898.589696C642.886656 912.167936 624.64512 919.3984 605.950976 919.3984L605.950976 919.3984zM605.950976 919.3984" p-id="4522" fill="#ccd9e9"></path></svg>