<?xml version="1.0" standalone="no"?><!DOCTYPE svg PUBLIC "-//W3C//DTD SVG 1.1//EN" "http://www.w3.org/Graphics/SVG/1.1/DTD/svg11.dtd"><svg t="1579226110332" class="icon" viewBox="0 0 1024 1024" version="1.1" xmlns="http://www.w3.org/2000/svg" p-id="2310" xmlns:xlink="http://www.w3.org/1999/xlink" width="200" height="200"><defs><style type="text/css"></style></defs><path d="M832 345.6c-17.6-20.8-44.8-33.6-72-33.6h-60.8L672 212.8c-6.4-16-24-25.6-40-19.2-14.4 4.8-24 20.8-20.8 35.2l22.4 83.2H459.2l22.4-83.2c3.2-17.6-8-33.6-25.6-36.8-16-3.2-30.4 6.4-35.2 20.8l-27.2 99.2h-62.4c-52.8 0-96 43.2-96 96 0 4.8 0 9.6 1.6 14.4l62.4 334.4c6.4 48 48 83.2 94.4 83.2h304c48 0 88-35.2 94.4-81.6L848 468.8v-1.6l6.4-44.8c3.2-27.2-4.8-56-22.4-76.8z m-40 67.2l-6.4 43.2-56 291.2v1.6c-1.6 16-16 27.2-32 27.2h-304c-16 0-30.4-12.8-32-28.8l-62.4-334.4c-1.6-9.6 1.6-19.2 8-25.6 6.4-6.4 14.4-11.2 24-11.2h44.8l-4.8 19.2c-4.8 17.6 4.8 35.2 22.4 38.4 3.2 0 4.8 1.6 8 1.6 14.4 0 27.2-9.6 30.4-24l9.6-36.8h208l9.6 36.8c3.2 14.4 16 24 30.4 24 3.2 0 6.4 0 8-1.6 17.6-4.8 27.2-22.4 22.4-38.4l-4.8-19.2h44.8c17.6 0 32 14.4 32 32v4.8z" p-id="2311" fill="#ccd9e9"></path><path d="M657.6 521.6h-224c-9.6 0-16 6.4-16 16s6.4 16 16 16h224c9.6 0 16-6.4 16-16s-8-16-16-16zM617.6 617.6h-144c-9.6 0-16 6.4-16 16s6.4 16 16 16h144c9.6 0 16-6.4 16-16s-8-16-16-16z" p-id="2312" fill="#ccd9e9"></path></svg>