<?xml version="1.0" standalone="no"?><!DOCTYPE svg PUBLIC "-//W3C//DTD SVG 1.1//EN" "http://www.w3.org/Graphics/SVG/1.1/DTD/svg11.dtd"><svg t="1579226147096" class="icon" viewBox="0 0 1024 1024" version="1.1" xmlns="http://www.w3.org/2000/svg" p-id="3046" xmlns:xlink="http://www.w3.org/1999/xlink" width="200" height="200"><defs><style type="text/css"></style></defs><path d="M569.344 588.361143c-145.554286 0-263.972571-114.834286-263.972571-256.073143s118.418286-256.073143 263.972571-256.073143c145.481143 0 263.899429 114.834286 263.899429 256.073143S714.825143 588.361143 569.344 588.361143z m0-439.003429c-105.252571 0-190.829714 82.066286-190.829714 182.930286s85.577143 182.930286 190.829714 182.930286c105.179429 0 190.756571-82.066286 190.756571-182.930286S674.596571 149.357714 569.344 149.357714z" fill="#ccd9e9" p-id="3047"></path><path d="M205.677714 971.410286a36.571429 36.571429 0 0 1-36.571428-36.571429c0-226.669714 190.464-410.989714 424.448-410.989714a36.571429 36.571429 0 0 1 0 73.142857c-193.682286 0-351.305143 151.552-351.305143 337.846857a36.571429 36.571429 0 0 1-36.571429 36.571429z" fill="#ccd9e9" p-id="3048"></path><path d="M824.027429 902.217143l-253.147429-0.073143a64.219429 64.219429 0 0 1-49.444571-20.699429 62.025143 62.025143 0 0 1-13.458286-50.322285c1.974857-14.336 5.12-28.598857 8.192-42.788572l2.925714-13.385143c6.217143-29.110857 12.580571-58.441143 19.017143-87.625142a64.219429 64.219429 0 0 1 63.341714-51.346286c63.561143-0.146286 127.195429-0.146286 190.902857 0 30.573714 0 56.466286 20.845714 62.902858 50.688l29.257142 135.972571a72.338286 72.338286 0 0 1-1.901714 38.692572c-8.996571 26.404571-29.769143 40.886857-58.587428 40.886857z m-101.376-36.571429h101.376c13.019429 0 20.187429-4.754286 24.064-16.164571a35.913143 35.913143 0 0 0 0.731428-19.236572l-29.184-135.826285a27.282286 27.282286 0 0 0-27.282286-21.869715c-63.707429-0.146286-127.195429-0.146286-190.756571 0-13.897143 0-24.722286 8.777143-27.574857 22.454858-6.509714 29.330286-12.873143 58.514286-19.090286 87.552l-2.925714 13.604571c-2.925714 13.312-5.851429 26.477714-7.68 39.936-0.877714 6.290286-0.731429 14.994286 4.754286 21.357714 4.534857 5.266286 12.361143 8.118857 21.869714 8.118857l151.698286 0.073143zM731.136 928.914286H590.774857a16.091429 16.091429 0 0 0-16.530286 15.652571c0 8.557714 7.460571 15.579429 16.530286 15.579429h216.649143a16.091429 16.091429 0 0 0 16.457143-15.579429 16.091429 16.091429 0 0 0-16.457143-15.652571H723.090286" fill="#ccd9e9" p-id="3049"></path><path d="M831.414857 787.017143c-1.536-12.507429-10.166857-20.406857-24.429714-20.260572-26.770286 0.512-53.467429 0.146286-80.310857 0.146286-14.848 0-21.284571 6.582857-21.138286 21.430857 0.146286 14.994286 0.585143 30.134857 0.804571 45.129143 0.292571 14.262857 7.753143 21.869714 22.235429 21.869714 15.213714 0.146286 30.500571 0 45.714286 0 15.798857 0 31.744 0.146286 47.542857 0 11.849143-0.146286 19.090286-7.972571 17.261714-19.163428-2.413714-16.384-5.558857-32.768-7.68-49.152z m-159.670857-18.358857a4746.825143 4746.825143 0 0 0-91.282286 0c-7.826286 0.073143-16.530286 6.802286-17.554285 14.116571-3.145143 18.870857-6.144 37.814857-8.630858 56.758857-1.389714 10.24 5.339429 16.822857 15.798858 16.822857h98.596571c9.289143 0 17.334857-6.875429 17.554286-15.945142 0.731429-18.797714 1.170286-37.814857 1.170285-56.539429a15.140571 15.140571 0 0 0-15.652571-15.213714z m-88.576-14.921143c14.116571 0.146286 28.306286 0 42.349714 0h40.96c14.116571 0 20.114286-5.851429 20.553143-19.968 0.146286-11.337143 0.146286-22.747429 0.146286-34.157714 0-10.971429-5.705143-16.822857-16.822857-16.822858H593.334857c-10.898286 0-17.627429 6.363429-19.163428 16.969143a1755.428571 1755.428571 0 0 1-5.778286 36.132572c-1.828571 10.678857 3.584 17.846857 14.774857 17.846857z m138.825143-1.243429h84.260571c10.898286-0.073143 16.530286-5.632 15.140572-16.384-1.536-13.165714-3.876571-26.112-5.997715-39.277714-1.536-9.435429-7.460571-14.921143-16.530285-15.140571-26.916571-0.146286-53.76-0.146286-80.749715 0-9.508571 0.219429-14.994286 6.144-14.774857 15.945142 0.146286 12.361143 0.585143 24.795429 0.731429 37.156572 0.292571 11.556571 6.217143 17.627429 17.92 17.700571zM714.678857 944.420571c0 7.606857-7.021714 13.604571-15.579428 13.604572-8.704 0-15.725714-5.997714-15.725715-13.604572V921.6c0-7.533714 7.021714-13.531429 15.725715-13.531429 8.557714 0 15.579429 5.997714 15.579428 13.531429v22.820571z" fill="#ccd9e9" p-id="3050"></path></svg>